<svg width="522" height="522" viewBox="0 0 522 522" fill="none" xmlns="http://www.w3.org/2000/svg">
<g clip-path="url(#clip0_2719_29065)">
<path d="M516.55 426.561C516.55 476.061 476.04 516.561 426.55 516.561H94.5498C45.0498 516.561 4.5498 476.061 4.5498 426.561V94.5605C4.5498 45.0605 45.0498 4.56055 94.5498 4.56055H426.55C476.06 4.56055 516.55 45.0605 516.55 94.5605V426.561Z" fill="#00377C"/>
<path d="M426.54 4.56055H94.54C45.04 4.56055 4.54004 45.0605 4.54004 94.5605V334.331C48 339.771 140 349.001 265.55 349.001C377.18 349.001 465.86 341.461 516.55 335.821V94.5605C516.55 45.0605 476.03 4.56055 426.55 4.56055" fill="#00377C"/>
<path d="M183.14 409.46C183.079 413.513 182.678 417.554 181.94 421.54L174.22 462.44C174.128 462.881 173.889 463.279 173.542 463.567C173.195 463.856 172.761 464.019 172.31 464.03H160.72C160.436 464.027 160.156 463.963 159.901 463.84C159.645 463.717 159.419 463.539 159.24 463.32C159.059 463.1 158.928 462.845 158.854 462.571C158.779 462.297 158.765 462.01 158.81 461.73L166.25 421.82C166.872 418.977 167.207 416.079 167.25 413.17C167.25 406.11 164.7 403.12 158.75 403.12C151.33 403.12 141.63 412.23 138.9 426.97L132.32 462.44C132.24 462.887 132.004 463.292 131.655 463.583C131.305 463.874 130.865 464.032 130.41 464.03H118.94C118.654 464.026 118.372 463.96 118.113 463.838C117.854 463.715 117.625 463.538 117.44 463.32C117.264 463.094 117.136 462.835 117.065 462.558C116.995 462.281 116.983 461.992 117.03 461.71L124.77 421.11C125.291 418.447 125.565 415.742 125.59 413.03C125.59 406.03 123.17 403.12 117.23 403.12C109.81 403.12 99.5599 413.62 96.9599 427.69L90.5199 462.44C90.4318 462.881 90.1931 463.278 89.8447 463.562C89.4963 463.847 89.0598 464.001 88.6099 464H76.9999C76.7156 463.99 76.4366 463.921 76.1814 463.795C75.9262 463.67 75.7007 463.491 75.5199 463.272C75.3392 463.052 75.2073 462.797 75.1331 462.522C75.059 462.248 75.0442 461.96 75.0899 461.68L84.3999 412.68C85.6699 405.85 86.7199 399.11 87.5199 392.68C87.5762 392.208 87.8039 391.773 88.1597 391.458C88.5155 391.142 88.9746 390.969 89.4499 390.97H99.9199C100.198 390.969 100.473 391.03 100.726 391.147C100.978 391.265 101.201 391.436 101.38 391.65C101.56 391.862 101.694 392.109 101.774 392.376C101.853 392.643 101.875 392.923 101.84 393.2L100.91 399.65C107.01 393 114.61 389.4 122.81 389.4C131.71 389.4 137.92 393.95 140.11 401.77C146.37 393.77 154.64 389.54 164.27 389.4C173.67 389.4 183.14 395.62 183.14 409.51V409.46ZM258.14 420.09C258.14 442 242.74 465.65 217.84 465.65H217.7C200.64 465.65 188.7 453.15 188.7 435.25C188.7 409.96 206.79 389.4 228.99 389.4C249.12 389.4 258.12 404.82 258.12 420.09H258.14ZM227.56 402.72C214.11 402.72 204.75 419.64 204.75 434.82C204.75 445.28 210.46 452.33 218.98 452.33C231.88 452.33 241.79 435 241.79 420.09C241.79 418.3 241.38 402.72 227.56 402.72ZM309.11 389.4C300.4 389.4 292.22 393.21 285.92 400.03L286.85 393.18C286.891 392.906 286.871 392.628 286.792 392.363C286.712 392.098 286.575 391.855 286.39 391.65C286.211 391.436 285.988 391.265 285.736 391.147C285.483 391.03 285.208 390.969 284.93 390.97H274.19C273.715 390.969 273.255 391.142 272.9 391.458C272.544 391.773 272.316 392.208 272.26 392.68C271.39 399.68 270.32 406.2 268.98 412.68L259.82 461.74C259.767 462.019 259.777 462.307 259.85 462.582C259.923 462.857 260.056 463.113 260.24 463.33C260.422 463.552 260.651 463.73 260.91 463.853C261.17 463.976 261.453 464.04 261.74 464.04H273.46C273.914 464.04 274.354 463.881 274.703 463.591C275.052 463.3 275.288 462.896 275.37 462.45L281.66 428.84C284.75 412.06 296.25 403.13 303.36 403.13C309.46 403.13 312.3 406.32 312.3 413.18C312.249 416.033 311.974 418.879 311.48 421.69L303.9 461.69C303.843 461.972 303.851 462.263 303.922 462.541C303.993 462.82 304.125 463.079 304.31 463.3C304.495 463.518 304.724 463.695 304.983 463.818C305.242 463.94 305.524 464.006 305.81 464.01H317.54C317.991 463.999 318.425 463.836 318.772 463.547C319.119 463.259 319.358 462.861 319.45 462.42L327.17 422C327.951 418.2 328.392 414.338 328.49 410.46C328.49 394.89 318.49 389.35 309.09 389.35L309.11 389.4ZM387 457.84C387.076 458.246 387.019 458.666 386.84 459.039C386.66 459.411 386.365 459.716 386 459.91C379.59 463.48 370.7 465.6 362.17 465.6C344.73 465.6 333.89 454.17 333.89 435.77C333.89 413.77 350.21 389.35 373.62 389.35C386.92 389.35 395.88 397.35 395.88 409.18C395.88 425.85 380.66 433.79 349.58 433.59C349.405 437.13 349.914 440.672 351.08 444.02C353.97 450.73 360.08 452.14 364.74 452.14C370.921 452.15 377.005 450.602 382.43 447.64C382.699 447.494 382.999 447.418 383.305 447.418C383.61 447.418 383.911 447.494 384.18 447.64C384.455 447.765 384.696 447.955 384.883 448.194C385.069 448.432 385.195 448.712 385.25 449.01L387 457.84ZM352 420.55C361.42 420.55 368.32 419.7 373.1 417.97C379.82 415.54 380.59 411.97 380.59 409.46C380.59 405.06 377.36 402.53 371.94 402.53C362.26 402.53 355.07 411.46 351.94 420.53L352 420.55ZM465 391.85C464.822 391.569 464.577 391.337 464.288 391.175C463.998 391.012 463.672 390.925 463.34 390.92H450.73C450.358 390.926 449.995 391.036 449.683 391.238C449.37 391.439 449.12 391.724 448.96 392.06L431.22 430.52C429.11 435.09 427.55 438.67 426.22 441.74C425.63 438.19 424.93 434.36 424.02 429.74L417.14 392.56C417.062 392.11 416.827 391.703 416.478 391.41C416.128 391.117 415.686 390.958 415.23 390.96H402.93C402.639 390.963 402.352 391.03 402.089 391.157C401.827 391.283 401.595 391.465 401.41 391.69C401.231 391.915 401.105 392.177 401.041 392.457C400.977 392.738 400.976 393.029 401.04 393.31L414.91 458.31C415.16 459.31 415.07 459.64 414.82 460.11C411.603 466.075 407.195 471.317 401.87 475.51C398.16 478.291 394.032 480.464 389.64 481.95C389.194 482.136 388.831 482.478 388.618 482.912C388.404 483.346 388.355 483.842 388.48 484.31L391.48 494.47C391.607 494.868 391.856 495.216 392.192 495.465C392.527 495.714 392.932 495.852 393.35 495.86C393.486 495.874 393.624 495.874 393.76 495.86C398.86 494.73 407.42 490.81 414.76 483.48C424.41 474 431.43 461.83 439.05 446.48L465.05 393.86C465.2 393.564 465.271 393.235 465.257 392.904C465.243 392.573 465.144 392.251 464.97 391.97" fill="#FDBF13"/>
<path d="M114.71 108.301C117.77 104.711 121.91 101.931 125.57 101.931H130.83V122.851H163V132.351C163 137.131 158.67 143.351 149.3 143.351H130.83V179.691C130.83 191.691 136.12 196.281 145.45 196.281C152.83 196.281 158.5 195.281 162.09 193.031H163V201.291C163 210.721 156.1 216.751 142.72 216.751C119.33 216.701 108 204.001 108 182.351V126.631C108 117.551 109.68 114.131 114.69 108.301H114.71ZM191 116.371C194.591 116.337 198.026 114.897 200.569 112.361C203.111 109.824 204.558 106.392 204.6 102.801C204.558 99.2234 203.106 95.8072 200.559 93.2944C198.013 90.7816 194.578 89.3752 191 89.3807C187.45 89.3913 184.05 90.8108 181.547 93.3273C179.044 95.8437 177.642 99.2512 177.65 102.801C177.644 106.363 179.042 109.785 181.541 112.325C184.039 114.865 187.438 116.318 191 116.371ZM207.33 216.501C217.1 216.501 221.04 212.561 221.04 202.571V197.651H216.78C206.65 197.651 202.69 194.651 202.69 185.441V142.121C202.69 130.441 196.56 124.931 186.2 124.931H179.63V187.631C179.63 206.371 189.46 216.501 207.33 216.501ZM389.27 171.001C389.27 152.401 382.35 141.431 367.27 141.431C354.11 141.431 347.33 152.431 347.33 167.681C347.33 186.091 354.11 197.051 369.33 197.051C382.72 197.051 389.27 186.051 389.27 171.001ZM323.41 171.001C323.41 143.131 339.41 120.801 369.33 120.801C397.13 120.801 413.09 143.131 413.09 167.681C413.09 195.541 397.09 217.681 367.23 217.681C339.43 217.681 323.41 195.551 323.41 171.011V171.001ZM327.91 110.921H328.43C335.88 100.321 350.48 91.4107 370.56 91.4107C389.07 91.4107 401.72 100.271 410.56 111.041H411V101.291C410.794 97.4756 409.571 93.785 407.46 90.6007C400.32 81.1507 385.81 73.2207 368.72 73.2207C351.43 73.2207 335.86 83.3107 330.97 91.2207C329.197 94.1679 328.142 97.4907 327.89 100.921L327.91 110.921ZM377.64 234.331H377C365.73 251.881 343.61 266.791 313.35 266.791C285.48 266.791 266.46 252.091 253.06 234.121H252.37V245.731C252.37 250.731 254.65 258.891 257.75 263.491C268.42 279.201 290.44 292.411 316.14 292.411C342.24 292.411 365.73 275.631 373.02 262.511C375.73 257.691 377.69 250.701 377.69 246.371L377.64 234.331ZM301.45 170.721H289.23L289.68 172.861C290.609 177.18 291.091 181.583 291.12 186.001V193.461C291.12 197.111 290.28 200.461 280.96 200.461C267.49 200.461 251.48 195.111 251.48 169.691C251.48 153.471 263.96 141.691 281.13 141.691C292.01 141.691 302.32 144.581 308.13 149.171L308.59 149.521H311.73V141.441C311.73 131.831 302.88 121.511 283.46 121.511C250.65 121.511 227.74 142.391 227.74 172.201C227.74 204.001 253.4 220.621 278.74 220.621C302.03 220.621 313.25 212.541 313.25 195.811V181.001C313.25 175.721 307.56 170.741 301.5 170.741" fill="white"/>
<path d="M516.55 335.81C465.85 341.44 377.17 348.99 265.55 348.99C140 349 47.9998 339.77 4.5498 334.33" stroke="white" stroke-width="9.11" stroke-linejoin="round"/>
<path d="M427.56 4.56055H93.5601C44.4067 4.56055 4.56006 44.4072 4.56006 93.5605V427.561C4.56006 476.714 44.4067 516.561 93.5601 516.561H427.56C476.713 516.561 516.56 476.714 516.56 427.561V93.5605C516.56 44.4072 476.713 4.56055 427.56 4.56055Z" stroke="white" stroke-width="9.11" stroke-miterlimit="10"/>
</g>
<defs>
<clipPath id="clip0_2719_29065">
<rect width="521.11" height="521.11" fill="white"/>
</clipPath>
</defs>
</svg>
